  0
SECTION
  2
HEADER
  9
$ACADVER
  1
AC1015
  9
$ACADMAINTVER
 70
     6
  9
$DWGCODEPAGE
  3
ANSI_1252
  9
$INSBASE
 10
0.0
 20
0.0
 30
0.0
  9
$EXTMIN
 10
-1145.1870994175
 20
-1783.9394365016
 30
0.0
  9
$EXTMAX
 10
-1051.5339896731
 20
-1695.8827402915
 30
0.0
  9
$LIMMIN
 10
0.0
 20
0.0
  9
$LIMMAX
 10
420.0
 20
297.0
  9
$ORTHOMODE
 70
     0
  9
$REGENMODE
 70
     1
  9
$FILLMODE
 70
     1
  9
$QTEXTMODE
 70
     0
  9
$MIRRTEXT
 70
     1
  9
$LTSCALE
 40
1.0
  9
$ATTMODE
 70
     1
  9
$TEXTSIZE
 40
3.5
  9
$TRACEWID
 40
1.0
  9
$TEXTSTYLE
  7
Standard
  9
$CLAYER
  8
0
  9
$CELTYPE
  6
ByLayer
  9
$CECOLOR
 62
   256
  9
$CELTSCALE
 40
1.0
  9
$DISPSILH
 70
     0
  9
$DIMSCALE
 40
1.0
  9
$DIMASZ
 40
3.302
  9
$DIMEXO
 40
0.0
  9
$DIMDLI
 40
3.75
  9
$DIMRND
 40
0.0
  9
$DIMDLE
 40
0.0
  9
$DIMEXE
 40
1.0
  9
$DIMTP
 40
0.0
  9
$DIMTM
 40
0.0
  9
$DIMTXT
 40
3.5
  9
$DIMCEN
 40
2.5
  9
$DIMTSZ
 40
0.0
  9
$DIMTOL
 70
     0
  9
$DIMLIM
 70
     0
  9
$DIMTIH
 70
     1
  9
$DIMTOH
 70
     1
  9
$DIMSE1
 70
     0
  9
$DIMSE2
 70
     0
  9
$DIMTAD
 70
     1
  9
$DIMZIN
 70
     1
  9
$DIMBLK
  1

  9
$DIMASO
 70
     1
  9
$DIMSHO
 70
     1
  9
$DIMPOST
  1

  9
$DIMAPOST
  1

  9
$DIMALT
 70
     0
  9
$DIMALTD
 70
     3
  9
$DIMALTF
 40
0.0393700787
  9
$DIMLFAC
 40
1.0
  9
$DIMTOFL
 70
     1
  9
$DIMTVP
 40
0.0
  9
$DIMTIX
 70
     0
  9
$DIMSOXD
 70
     0
  9
$DIMSAH
 70
     0
  9
$DIMBLK1
  1

  9
$DIMBLK2
  1

  9
$DIMSTYLE
  2
ISO-25
  9
$DIMCLRD
 70
     0
  9
$DIMCLRE
 70
     0
  9
$DIMCLRT
 70
     0
  9
$DIMTFAC
 40
1.0
  9
$DIMGAP
 40
1.524
  9
$DIMJUST
 70
     0
  9
$DIMSD1
 70
     0
  9
$DIMSD2
 70
     0
  9
$DIMTOLJ
 70
     0
  9
$DIMTZIN
 70
     1
  9
$DIMALTZ
 70
     0
  9
$DIMALTTZ
 70
     0
  9
$DIMUPT
 70
     0
  9
$DIMDEC
 70
     2
  9
$DIMTDEC
 70
     2
  9
$DIMALTU
 70
     2
  9
$DIMALTTD
 70
     3
  9
$DIMTXSTY
  7
Standard
  9
$DIMAUNIT
 70
     0
  9
$DIMADEC
 70
     2
  9
$DIMALTRND
 40
0.0
  9
$DIMAZIN
 70
     0
  9
$DIMDSEP
 70
    44
  9
$DIMATFIT
 70
     3
  9
$DIMFRAC
 70
     0
  9
$DIMLDRBLK
  1

  9
$DIMLUNIT
 70
     2
  9
$DIMLWD
 70
    -2
  9
$DIMLWE
 70
    -2
  9
$DIMTMOVE
 70
     0
  9
$LUNITS
 70
     2
  9
$LUPREC
 70
     2
  9
$SKETCHINC
 40
1.0
  9
$FILLETRAD
 40
10.0
  9
$AUNITS
 70
     0
  9
$AUPREC
 70
     2
  9
$MENU
  1
.
  9
$ELEVATION
 40
0.0
  9
$PELEVATION
 40
0.0
  9
$THICKNESS
 40
0.0
  9
$LIMCHECK
 70
     0
  9
$CHAMFERA
 40
0.0
  9
$CHAMFERB
 40
0.0
  9
$CHAMFERC
 40
0.0
  9
$CHAMFERD
 40
0.0
  9
$SKPOLY
 70
     0
  9
$TDCREATE
 40
2459584.665235741
  9
$TDUCREATE
 40
2459584.873569074
  9
$TDUPDATE
 40
2459584.665448692
  9
$TDUUPDATE
 40
2459584.873782026
  9
$TDINDWG
 40
0.0000000116
  9
$TDUSRTIMER
 40
0.0000000116
  9
$USRTIMER
 70
     1
  9
$ANGBASE
 50
0.0
  9
$ANGDIR
 70
     0
  9
$PDMODE
 70
     0
  9
$PDSIZE
 40
-1.0
  9
$PLINEWID
 40
0.0
  9
$SPLFRAME
 70
     0
  9
$SPLINETYPE
 70
     6
  9
$SPLINESEGS
 70
     8
  9
$HANDSEED
  5
128
  9
$SURFTAB1
 70
     6
  9
$SURFTAB2
 70
     6
  9
$SURFTYPE
 70
     6
  9
$SURFU
 70
     6
  9
$SURFV
 70
     6
  9
$UCSBASE
  2

  9
$UCSNAME
  2

  9
$UCSORG
 10
0.0
 20
0.0
 30
0.0
  9
$UCSXDIR
 10
1.0
 20
0.0
 30
0.0
  9
$UCSYDIR
 10
0.0
 20
1.0
 30
0.0
  9
$UCSORTHOREF
  2

  9
$UCSORTHOVIEW
 70
     0
  9
$UCSORGTOP
 10
0.0
 20
0.0
 30
0.0
  9
$UCSORGBOTTOM
 10
0.0
 20
0.0
 30
0.0
  9
$UCSORGLEFT
 10
0.0
 20
0.0
 30
0.0
  9
$UCSORGRIGHT
 10
0.0
 20
0.0
 30
0.0
  9
$UCSORGFRONT
 10
0.0
 20
0.0
 30
0.0
  9
$UCSORGBACK
 10
0.0
 20
0.0
 30
0.0
  9
$PUCSBASE
  2

  9
$PUCSNAME
  2

  9
$PUCSORG
 10
0.0
 20
0.0
 30
0.0
  9
$PUCSXDIR
 10
1.0
 20
0.0
 30
0.0
  9
$PUCSYDIR
 10
0.0
 20
1.0
 30
0.0
  9
$PUCSORTHOREF
  2

  9
$PUCSORTHOVIEW
 70
     0
  9
$PUCSORGTOP
 10
0.0
 20
0.0
 30
0.0
  9
$PUCSORGBOTTOM
 10
0.0
 20
0.0
 30
0.0
  9
$PUCSORGLEFT
 10
0.0
 20
0.0
 30
0.0
  9
$PUCSORGRIGHT
 10
0.0
 20
0.0
 30
0.0
  9
$PUCSORGFRONT
 10
0.0
 20
0.0
 30
0.0
  9
$PUCSORGBACK
 10
0.0
 20
0.0
 30
0.0
  9
$USERI1
 70
     0
  9
$USERI2
 70
     0
  9
$USERI3
 70
     0
  9
$USERI4
 70
     0
  9
$USERI5
 70
     0
  9
$USERR1
 40
0.0
  9
$USERR2
 40
0.0
  9
$USERR3
 40
0.0
  9
$USERR4
 40
0.0
  9
$USERR5
 40
0.0
  9
$WORLDVIEW
 70
     1
  9
$SHADEDGE
 70
     3
  9
$SHADEDIF
 70
    70
  9
$TILEMODE
 70
     1
  9
$MAXACTVP
 70
    64
  9
$PINSBASE
 10
0.0
 20
0.0
 30
0.0
  9
$PLIMCHECK
 70
     0
  9
$PEXTMIN
 10
1.0000000000E+20
 20
1.0000000000E+20
 30
1.0000000000E+20
  9
$PEXTMAX
 10
-1.0000000000E+20
 20
-1.0000000000E+20
 30
-1.0000000000E+20
  9
$PLIMMIN
 10
0.0
 20
0.0
  9
$PLIMMAX
 10
420.0
 20
297.0
  9
$UNITMODE
 70
     0
  9
$VISRETAIN
 70
     1
  9
$PLINEGEN
 70
     0
  9
$PSLTSCALE
 70
     1
  9
$TREEDEPTH
 70
  3020
  9
$CMLSTYLE
  2
Standard
  9
$CMLJUST
 70
     0
  9
$CMLSCALE
 40
20.0
  9
$PROXYGRAPHICS
 70
     1
  9
$MEASUREMENT
 70
     1
  9
$CELWEIGHT
370
    -1
  9
$ENDCAPS
280
     0
  9
$JOINSTYLE
280
     0
  9
$LWDISPLAY
290
     1
  9
$INSUNITS
 70
     4
  9
$HYPERLINKBASE
  1

  9
$STYLESHEET
  1

  9
$XEDIT
290
     1
  9
$CEPSNTYPE
380
     0
  9
$PSTYLEMODE
290
     1
  9
$FINGERPRINTGUID
  2
{14a3ebce-516b-48c9-a0c0-2dd4d65289ed}
  9
$VERSIONGUID
  2
{FAEB1C32-E019-11D5-929B-00C0DF256EC4}
  9
$EXTNAMES
290
     1
  9
$PSVPSCALE
 40
0.0
  9
$OLESTARTUP
290
     0
  0
ENDSEC
  0
SECTION
  2
CLASSES
  0
CLASS
  1
ACDBDICTIONARYWDFLT
  2
AcDbDictionaryWithDefault
  3
ObjectDBX Classes
 90
        0
280
     0
281
     0
  0
CLASS
  1
VISUALSTYLE
  2
AcDbVisualStyle
  3
ObjectDBX Classes
 90
     4095
280
     0
281
     0
  0
CLASS
  1
MATERIAL
  2
AcDbMaterial
  3
ObjectDBX Classes
 90
     1153
280
     0
281
     0
  0
CLASS
  1
SCALE
  2
AcDbScale
  3
ObjectDBX Classes
 90
     1153
280
     0
281
     0
  0
CLASS
  1
TABLESTYLE
  2
AcDbTableStyle
  3
ObjectDBX Classes
 90
     4095
280
     0
281
     0
  0
CLASS
  1
MLEADERSTYLE
  2
AcDbMLeaderStyle
  3
ACDB_MLEADERSTYLE_CLASS
 90
     4095
280
     0
281
     0
  0
CLASS
  1
SUN
  2
AcDbSun
  3
SCENEOE
 90
     1153
280
     0
281
     0
  0
CLASS
  1
ACDBPLACEHOLDER
  2
AcDbPlaceHolder
  3
ObjectDBX Classes
 90
        0
280
     0
281
     0
  0
CLASS
  1
LAYOUT
  2
AcDbLayout
  3
ObjectDBX Classes
 90
        0
280
     0
281
     0
  0
ENDSEC
  0
SECTION
  2
TABLES
  0
TABLE
  2
VPORT
  5
8
330
0
100
AcDbSymbolTable
 70
     1
  0
VPORT
  5
29
330
8
100
AcDbSymbolTableRecord
100
AcDbViewportTableRecord
  2
*Active
 70
     0
 10
0.0
 20
0.0
 11
1.0
 21
1.0
 12
-1098.3605445453
 22
-1739.9110883966
 13
0.0
 23
0.0
 14
10.0
 24
10.0
 15
10.0
 25
10.0
 16
0.0
 26
0.0
 36
1.0
 17
0.0
 27
0.0
 37
0.0
 40
89.8178301344
 41
1.0635546617
 42
50.0
 43
0.0
 44
0.0
 50
0.0
 51
0.0
 71
     0
 72
   100
 73
     1
 74
     3
 75
     0
 76
     0
 77
     0
 78
     0
281
     0
 65
     1
110
0.0
120
0.0
130
0.0
111
1.0
121
0.0
131
0.0
112
0.0
122
1.0
132
0.0
 79
     0
146
0.0
  0
ENDTAB
  0
TABLE
  2
LTYPE
  5
5
330
0
100
AcDbSymbolTable
 70
     6
  0
LTYPE
  5
14
330
5
100
AcDbSymbolTableRecord
100
AcDbLinetypeTableRecord
  2
ByBlock
 70
     0
  3

 72
    65
 73
     0
 40
0.0
  0
LTYPE
  5
15
330
5
100
AcDbSymbolTableRecord
100
AcDbLinetypeTableRecord
  2
ByLayer
 70
     0
  3

 72
    65
 73
     0
 40
0.0
  0
LTYPE
  5
16
330
5
100
AcDbSymbolTableRecord
100
AcDbLinetypeTableRecord
  2
Continuous
 70
     0
  3
Solid line
 72
    65
 73
     0
 40
0.0
  0
LTYPE
  5
6E
330
5
100
AcDbSymbolTableRecord
100
AcDbLinetypeTableRecord
  2
HIDDEN
 70
     0
  3
Hidden __ __ __ __ __ __ __ __ __ __ __ __ __ __
 72
    65
 73
     2
 40
1.905
 49
1.27
 74
     0
 49
-0.635
 74
     0
  0
LTYPE
  5
6F
330
5
100
AcDbSymbolTableRecord
100
AcDbLinetypeTableRecord
  2
PHANTOM
 70
     0
  3
Phantom ______  __  __  ______  __  __  ______
 72
    65
 73
     6
 40
12.7
 49
6.35
 74
     0
 49
-1.27
 74
     0
 49
1.27
 74
     0
 49
-1.27
 74
     0
 49
1.27
 74
     0
 49
-1.27
 74
     0
  0
LTYPE
  5
70
330
5
100
AcDbSymbolTableRecord
100
AcDbLinetypeTableRecord
  2
CENTER
 70
     0
  3
Center ____ _ ____ _ ____ _ ____ _ ____ _ ____
 72
    65
 73
     4
 40
10.16
 49
6.35
 74
     0
 49
-1.27
 74
     0
 49
1.27
 74
     0
 49
-1.27
 74
     0
  0
LTYPE
  5
71
330
5
100
AcDbSymbolTableRecord
100
AcDbLinetypeTableRecord
  2
CENTERX2
 70
     0
  3
Center (2x) ________  __  ________  __  _____
 72
    65
 73
     4
 40
20.32
 49
12.7
 74
     0
 49
-2.54
 74
     0
 49
2.54
 74
     0
 49
-2.54
 74
     0
  0
LTYPE
  5
72
330
5
100
AcDbSymbolTableRecord
100
AcDbLinetypeTableRecord
  2
DOT2
 70
     0
  3
Dot (.5x) ........................................
 72
    65
 73
     2
 40
0.635
 49
0.0
 74
     0
 49
-0.635
 74
     0
  0
ENDTAB
  0
TABLE
  2
LAYER
  5
2
330
0
100
AcDbSymbolTable
 70
     1
  0
LAYER
  5
10
330
2
100
AcDbSymbolTableRecord
100
AcDbLayerTableRecord
  2
0
 70
     0
 62
     7
  6
Continuous
370
    -3
390
F
  0
ENDTAB
  0
TABLE
  2
STYLE
  5
3
330
0
100
AcDbSymbolTable
 70
     2
  0
STYLE
  5
11
330
3
100
AcDbSymbolTableRecord
100
AcDbTextStyleTableRecord
  2
Standard
 70
     0
 40
0.0
 41
1.0
 50
0.0
 71
     0
 42
3.5
  3
txt
  4

  0
STYLE
  5
124
330
3
100
AcDbSymbolTableRecord
100
AcDbTextStyleTableRecord
  2
SLDTEXTSTYLE0
 70
     0
 40
0.0
 41
0.7
 50
0.0
 71
     0
 42
3.5
  3
TXT
  4

  0
ENDTAB
  0
TABLE
  2
VIEW
  5
6
330
0
100
AcDbSymbolTable
 70
     0
  0
ENDTAB
  0
TABLE
  2
UCS
  5
7
330
0
100
AcDbSymbolTable
 70
     0
  0
ENDTAB
  0
TABLE
  2
APPID
  5
9
330
0
100
AcDbSymbolTable
 70
     1
  0
APPID
  5
12
330
9
100
AcDbSymbolTableRecord
100
AcDbRegAppTableRecord
  2
ACAD
 70
     0
  0
ENDTAB
  0
TABLE
  2
DIMSTYLE
  5
A
330
0
100
AcDbSymbolTable
 70
     1
100
AcDbDimStyleTable
  0
DIMSTYLE
105
27
330
A
100
AcDbSymbolTableRecord
100
AcDbDimStyleTableRecord
  2
ISO-25
 70
     0
 41
2.5
 42
0.625
 43
3.75
 44
1.25
 73
     0
 74
     0
 77
     1
 78
     8
140
2.5
141
2.5
143
0.0393700787
147
0.625
171
     3
172
     1
178
     0
271
     2
272
     2
274
     3
278
    44
283
     0
284
     8
340
11
  0
ENDTAB
  0
TABLE
  2
BLOCK_RECORD
  5
1
330
0
100
AcDbSymbolTable
 70
     1
  0
BLOCK_RECORD
  5
1F
330
1
100
AcDbSymbolTableRecord
100
AcDbBlockTableRecord
  2
*Model_Space
340
22
  0
BLOCK_RECORD
  5
1B
330
1
100
AcDbSymbolTableRecord
100
AcDbBlockTableRecord
  2
*Paper_Space
340
1E
  0
BLOCK_RECORD
  5
23
330
1
100
AcDbSymbolTableRecord
100
AcDbBlockTableRecord
  2
*Paper_Space0
340
26
  0
ENDTAB
  0
ENDSEC
  0
SECTION
  2
BLOCKS
  0
BLOCK
  5
20
330
1F
100
AcDbEntity
  8
0
100
AcDbBlockBegin
  2
*Model_Space
 70
     0
 10
0.0
 20
0.0
 30
0.0
  3
*Model_Space
  1

  0
ENDBLK
  5
21
330
1F
100
AcDbEntity
  8
0
100
AcDbBlockEnd
  0
BLOCK
  5
1C
330
1B
100
AcDbEntity
 67
     1
  8
0
100
AcDbBlockBegin
  2
*Paper_Space
 70
     0
 10
0.0
 20
0.0
 30
0.0
  3
*Paper_Space
  1

  0
ENDBLK
  5
1D
330
1B
100
AcDbEntity
 67
     1
  8
0
100
AcDbBlockEnd
  0
BLOCK
  5
24
330
23
100
AcDbEntity
  8
0
100
AcDbBlockBegin
  2
*Paper_Space0
 70
     0
 10
0.0
 20
0.0
 30
0.0
  3
*Paper_Space0
  1

  0
ENDBLK
  5
25
330
23
100
AcDbEntity
  8
0
100
AcDbBlockEnd
  0
ENDSEC
  0
SECTION
  2
ENTITIES
  0
SPLINE
  5
7A
330
1F
100
AcDbEntity
  8
0
  6
Continuous
 62
     7
370
    25
100
AcDbSpline
210
0.0
220
0.0
230
1.0
 70
     8
 71
     3
 72
    26
 73
    22
 74
     0
 42
0.00000001
 43
0.00000001
 40
0.0
 40
0.0
 40
0.0
 40
0.0
 40
0.0642288347187804
 40
0.1360719347685151
 40
0.2079071826189654
 40
0.2797002147872198
 40
0.3412757038291181
 40
0.4030043633033893
 40
0.4649128552874781
 40
0.5266017787656548
 40
0.5881269122654408
 40
0.6499847363256059
 40
0.7126159004872044
 40
0.7859236235136817
 40
0.857003729627816
 40
0.9242112860912384
 40
0.9605212173935802
 40
0.9806534432438443
 40
0.9909581048226587
 40
0.9955084768395528
 40
1.0
 40
1.0
 40
1.0
 40
1.0
 10
-1103.843546284819
 20
-1746.226573864149
 30
0.0
 10
-1103.375314991568
 20
-1746.154276311817
 30
0.0
 10
-1102.383344044706
 20
-1746.001110403266
 30
0.0
 10
-1100.84791755896
 20
-1745.91885142226
 30
0.0
 10
-1099.253034098384
 20
-1745.897803792556
 30
0.0
 10
-1097.728885961628
 20
-1745.978998980047
 30
0.0
 10
-1096.281991982226
 20
-1746.197672160512
 30
0.0
 10
-1094.9229424933
 20
-1746.567930984001
 30
0.0
 10
-1093.599490652345
 20
-1747.130259466139
 30
0.0
 10
-1092.342174340424
 20
-1747.900809521911
 30
0.0
 10
-1091.194506776946
 20
-1748.900052246149
 30
0.0
 10
-1090.183632129007
 20
-1750.107709594269
 30
0.0
 10
-1089.290708640907
 20
-1751.570929982287
 30
0.0
 10
-1088.528104767651
 20
-1753.221975752062
 30
0.0
 10
-1087.878759880988
 20
-1754.975394945901
 30
0.0
 10
-1087.405445267729
 20
-1756.44857659169
 30
0.0
 10
-1087.095749629241
 20
-1757.500390874288
 30
0.0
 10
-1086.939698755403
 20
-1758.073029304853
 30
0.0
 10
-1086.850967386512
 20
-1758.369155524954
 30
0.0
 10
-1086.845225736749
 20
-1758.548593212812
 30
0.0
 10
-1086.885821893659
 20
-1758.61198095649
 30
0.0
 10
-1086.905987862785
 20
-1758.643468549879
 30
0.0
  0
SPLINE
  5
7B
330
1F
100
AcDbEntity
  8
0
  6
Continuous
 62
     7
370
    25
100
AcDbSpline
210
0.0
220
0.0
230
1.0
 70
     8
 71
     3
 72
    12
 73
     8
 74
     0
 42
0.00000001
 43
0.00000001
 40
0.0
 40
0.0
 40
0.0
 40
0.0
 40
0.1950508440476718
 40
0.3896537794002229
 40
0.5844045144312369
 40
0.8138505548556811
 40
1.0
 40
1.0
 40
1.0
 40
1.0
 10
-1117.052680683619
 20
-1769.418094113775
 30
0.0
 10
-1117.00968474353
 20
-1768.843956574137
 30
0.0
 10
-1116.923791597894
 20
-1767.696999926462
 30
0.0
 10
-1116.628889684627
 20
-1766.017248921054
 30
0.0
 10
-1116.273742744506
 20
-1764.256505696328
 30
0.0
 10
-1115.868474975297
 20
-1762.538640378503
 30
0.0
 10
-1115.527424453797
 20
-1761.398854795194
 30
0.0
 10
-1115.374664456281
 20
-1760.888333239297
 30
0.0
  0
LWPOLYLINE
  5
7D
330
1F
100
AcDbEntity
  8
0
  6
Continuous
 62
     7
370
    25
100
AcDbPolyline
 90
       30
 70
   128
 43
0.0
 10
-1116.9781730916
 20
-1775.6570845551
 10
-1116.7597244283
 20
-1776.4256005315
 10
-1116.6235887399
 20
-1777.2149424047
 10
-1116.5719893816
 20
-1778.0122187174
 10
-1116.6057690693
 20
-1778.804408428
 10
-1116.7243761163
 20
-1779.5785735689
 10
-1116.9258734435
 20
-1780.3220705478
 10
-1117.2069702154
 20
-1781.0227566423
 10
-1117.5630755863
 20
-1781.6691883129
 10
-1117.9883736765
 20
-1782.2508080986
 10
-1118.4759185579
 20
-1782.7581170398
 10
-1119.0177476934
 20
-1783.1828298147
 10
-1119.6050119805
 20
-1783.5180100543
 10
-1120.2281202743
 20
-1783.7581836265
 10
-1120.8768960287
 20
-1783.8994280391
 10
-1121.5407434994
 20
-1783.9394365016
 10
-1122.208820792
 20
-1783.8775555998
 10
-1122.8702169311
 20
-1783.7147959665
 10
-1123.5141300572
 20
-1783.4538157768
 10
-1124.1300438419
 20
-1783.0988773346
 10
-1124.7078992392
 20
-1782.6557774611
 10
-1125.2382587692
 20
-1782.1317528216
 10
-1125.7124606501
 20
-1781.5353617372
 10
-1126.1227602615
 20
-1780.8763444109
 10
-1126.4624566286
 20
-1780.1654638516
 10
-1126.7260018626
 20
-1779.4143300935
 10
-1126.9090917674
 20
-1778.6352105825
 10
-1127.0087361359
 20
-1777.840829825
 10
-1127.0233075858
 20
-1777.0441615727
 10
-1126.9525681374
 20
-1776.2582169364
  0
SPLINE
  5
7F
330
1F
100
AcDbEntity
  8
0
  6
Continuous
 62
     7
370
    25
100
AcDbSpline
210
0.0
220
0.0
230
1.0
 70
     8
 71
     3
 72
     8
 73
     4
 74
     0
 42
0.00000001
 43
0.00000001
 40
0.9692318608545692
 40
0.9692318608545692
 40
0.9692318608545692
 40
0.9692318608545692
 40
1.0
 40
1.0
 40
1.0
 40
1.0
 10
-1126.972659336981
 20
-1772.393502648844
 30
0.0
 10
-1126.994234713437
 20
-1772.757099964589
 30
0.0
 10
-1127.023834143759
 20
-1773.120120750825
 30
0.0
 10
-1127.06224711455
 20
-1773.482439490345
 30
0.0
  0
SPLINE
  5
81
330
1F
100
AcDbEntity
  8
0
  6
Continuous
 62
     7
370
    25
100
AcDbSpline
210
0.0
220
0.0
230
1.0
 70
     8
 71
     3
 72
    14
 73
    10
 74
     0
 42
0.00000001
 43
0.00000001
 40
0.0
 40
0.0
 40
0.0
 40
0.0
 40
0.1036980891816531
 40
0.174611051862171
 40
0.3008749602725549
 40
0.4308549751484764
 40
0.551223154491394
 40
0.7215046176380058
 40
0.8890667021919347
 40
0.8890667021919347
 40
0.8890667021919347
 40
0.8890667021919347
 10
-1141.372448382242
 20
-1746.086154365297
 30
0.0
 10
-1140.32650375431
 20
-1746.103243952546
 30
0.0
 10
-1138.630155237061
 20
-1746.702239749963
 30
0.0
 10
-1135.623074453685
 20
-1747.378636371538
 30
0.0
 10
-1132.810817038375
 20
-1749.832731569834
 30
0.0
 10
-1130.267382975681
 20
-1753.368279677042
 30
0.0
 10
-1128.532881863247
 20
-1758.123001083044
 30
0.0
 10
-1127.554676874197
 20
-1763.519148428388
 30
0.0
 10
-1127.034491153603
 20
-1767.550109097924
 30
0.0
 10
-1126.953466367821
 20
-1769.541966602068
 30
0.0
  0
SPLINE
  5
83
330
1F
100
AcDbEntity
  8
0
  6
Continuous
 62
     7
370
    25
100
AcDbSpline
210
0.0
220
0.0
230
1.0
 70
     8
 71
     3
 72
    28
 73
    24
 74
     0
 42
0.00000001
 43
0.00000001
 40
0.0
 40
0.0
 40
0.0
 40
0.0
 40
0.0247222932194521
 40
0.0665706940300104
 40
0.1088784925776094
 40
0.151186443367016
 40
0.1930225388338619
 40
0.2348544937846412
 40
0.2823900607215511
 40
0.3298661735340157
 40
0.3771654109856896
 40
0.424840337133043
 40
0.4732833356839736
 40
0.5223617503027682
 40
0.5716659409407512
 40
0.6206576711888384
 40
0.6755768520202293
 40
0.729472863264138
 40
0.7833880633434231
 40
0.8377498838716692
 40
0.8923852220392384
 40
0.9467277058741995
 40
1.0
 40
1.0
 40
1.0
 40
1.0
 10
-1100.570663930538
 20
-1723.7205932542
 30
0.0
 10
-1100.384508596142
 20
-1723.691718693858
 30
0.0
 10
-1099.883240785016
 20
-1723.613967026376
 30
0.0
 10
-1099.123943865769
 20
-1723.240675709842
 30
0.0
 10
-1098.286471083178
 20
-1722.730154078442
 30
0.0
 10
-1097.490642634287
 20
-1722.130853633232
 30
0.0
 10
-1096.780638938891
 20
-1721.398454950901
 30
0.0
 10
-1096.201905116968
 20
-1720.456537639203
 30
0.0
 10
-1095.739584915427
 20
-1719.369433017686
 30
0.0
 10
-1095.373398918864
 20
-1718.172327601372
 30
0.0
 10
-1095.172871032691
 20
-1716.904466610996
 30
0.0
 10
-1095.18203161034
 20
-1715.589460689592
 30
0.0
 10
-1095.383944394205
 20
-1714.267537804483
 30
0.0
 10
-1095.755931684227
 20
-1712.972062218149
 30
0.0
 10
-1096.279010866856
 20
-1711.738036121543
 30
0.0
 10
-1096.963839349179
 20
-1710.547896415363
 30
0.0
 10
-1097.817471859376
 20
-1709.455781776617
 30
0.0
 10
-1098.841344567667
 20
-1708.523467672842
 30
0.0
 10
-1099.950934883893
 20
-1707.770691134771
 30
0.0
 10
-1101.118057929814
 20
-1707.156712591719
 30
0.0
 10
-1102.315975384963
 20
-1706.640478623485
 30
0.0
 10
-1103.519223492091
 20
-1706.186635440835
 30
0.0
 10
-1104.317981314361
 20
-1705.889141786511
 30
0.0
 10
-1104.713388547917
 20
-1705.741874192282
 30
0.0
  0
SPLINE
  5
84
330
1F
100
AcDbEntity
  8
0
  6
Continuous
 62
     7
370
    25
100
AcDbSpline
210
0.0
220
0.0
230
1.0
 70
     8
 71
     3
 72
     9
 73
     5
 74
     0
 42
0.00000001
 43
0.00000001
 40
0.0
 40
0.0
 40
0.0
 40
0.0
 40
0.6013797170253569
 40
1.0
 40
1.0
 40
1.0
 40
1.0
 10
-1104.713388547917
 20
-1705.741874192282
 30
0.0
 10
-1105.927931804292
 20
-1705.441250020447
 30
0.0
 10
-1107.410021540089
 20
-1703.789455016701
 30
0.0
 10
-1109.088124821637
 20
-1702.550252421252
 30
0.0
 10
-1109.902186646035
 20
-1702.35992589366
 30
0.0
  0
LWPOLYLINE
  5
8B
330
1F
100
AcDbEntity
  8
0
  6
Continuous
 62
     7
370
    25
100
AcDbPolyline
 90
       23
 70
   128
 43
0.0
 10
-1070.0722034947
 20
-1729.406581882
 10
-1070.1824121899
 20
-1730.0947280935
 10
-1070.3747216889
 20
-1730.7509073458
 10
-1070.6452171248
 20
-1731.3617617215
 10
-1070.9883919907
 20
-1731.9148559871
 10
-1071.3972602359
 20
-1732.3989307385
 10
-1071.863498482
 20
-1732.8041316095
 10
-1072.3776154628
 20
-1733.122209879
 10
-1072.9291452392
 20
-1733.3466903907
 10
-1073.5068602555
 20
-1733.4730033687
 10
-1074.0989998998
 20
-1733.498577445
 10
-1074.6935099167
 20
-1733.4228920051
 10
-1075.2782877965
 20
-1733.2474877865
 10
-1075.8414291481
 20
-1732.975935513
 10
-1076.3714700375
 20
-1732.6137632061
 10
-1076.8576203606
 20
-1732.1683436492
 10
-1077.2899834989
 20
-1731.6487443003
 10
-1077.6597577857
 20
-1731.0655427036
 10
-1077.9594156828
 20
-1730.4306111618
 10
-1078.1828570196
 20
-1729.7568750502
 10
-1078.3255331749
 20
-1729.0580496929
 10
-1078.3845396735
 20
-1728.3483611592
 10
-1078.3586753133
 20
-1727.6422566609
  0
LWPOLYLINE
  5
8D
330
1F
100
AcDbEntity
  8
0
  6
Continuous
 62
     7
370
    25
100
AcDbPolyline
 90
       23
 70
   128
 43
0.0
 10
-1077.6893765956
 20
-1720.7843948338
 10
-1077.5791679004
 20
-1720.0962486223
 10
-1077.3868584015
 20
-1719.4400693701
 10
-1077.1163629655
 20
-1718.8292149943
 10
-1076.7731880996
 20
-1718.2761207287
 10
-1076.3643198545
 20
-1717.7920459773
 10
-1075.8980816084
 20
-1717.3868451063
 10
-1075.3839646276
 20
-1717.0687668368
 10
-1074.8324348511
 20
-1716.8442863251
 10
-1074.2547198349
 20
-1716.7179733471
 10
-1073.6625801906
 20
-1716.6923992708
 10
-1073.0680701737
 20
-1716.7680847107
 10
-1072.4832922938
 20
-1716.9434889293
 10
-1071.9201509422
 20
-1717.2150412028
 10
-1071.3901100529
 20
-1717.5772135098
 10
-1070.9039597297
 20
-1718.0226330666
 10
-1070.4715965914
 20
-1718.5422324155
 10
-1070.1018223047
 20
-1719.1254340122
 10
-1069.8021644075
 20
-1719.760365554
 10
-1069.5787230707
 20
-1720.4341016657
 10
-1069.4360469155
 20
-1721.1329270229
 10
-1069.3770404169
 20
-1721.8426155566
 10
-1069.402904777
 20
-1722.5487200549
  0
LWPOLYLINE
  5
8E
330
1F
100
AcDbEntity
  8
0
  6
Continuous
 62
     7
370
    25
100
AcDbPolyline
 90
       36
 70
   128
 43
0.0
 10
-1122.4919110271
 20
-1780.6158566528
 10
-1122.9256598469
 20
-1780.3882271779
 10
-1123.3232205099
 20
-1780.0742205177
 10
-1123.6718150895
 20
-1779.6839291048
 10
-1123.9602394688
 20
-1779.2298972262
 10
-1124.1792234512
 20
-1778.7267178401
 10
-1124.3217287111
 20
-1778.190563546
 10
-1124.3831750124
 20
-1777.6386667841
 10
-1124.3615874202
 20
-1777.0887659704
 10
-1124.2576597777
 20
-1776.5585353694
 10
-1124.0747324047
 20
-1776.0650170291
 10
-1123.8186847375
 20
-1775.6240730348
 10
-1123.4977463588
 20
-1775.2498756895
 10
-1123.1222324922
 20
-1774.9544520036
 10
-1122.7042124623
 20
-1774.7472971376
 10
-1122.2571217768
 20
-1774.6350692192
 10
-1121.7953302983
 20
-1774.6213753461
 10
-1121.3336803847
 20
-1774.7066556506
 10
-1120.8870098443
 20
-1774.8881691536
 10
-1120.4696750356
 20
-1775.1600818618
 10
-1120.0950894428
 20
-1775.5136542769
 10
-1119.7752925551
 20
-1775.9375222907
 10
-1119.5205629076
 20
-1776.4180624364
 10
-1119.3390877207
 20
-1776.9398297583
 10
-1119.2366997563
 20
-1777.4860542254
 10
-1119.2166898477
 20
-1778.0391797339
 10
-1119.2797011299
 20
-1778.5814283749
 10
-1119.4237083685
 20
-1779.0953718308
 10
-1119.6440830523
 20
-1779.5644915361
 10
-1119.9337421577
 20
-1779.9737095975
 10
-1120.2833758026
 20
-1780.3098734097
 10
-1120.6817464741
 20
-1780.5621783914
 10
-1121.1160502109
 20
-1780.7225152527
 10
-1121.5723281337
 20
-1780.785730635
 10
-1122.0359150945
 20
-1780.7497927439
 10
-1122.4919110271
 20
-1780.6158566528
  0
LWPOLYLINE
  5
8F
330
1F
100
AcDbEntity
  8
0
  6
Continuous
 62
     7
370
    25
100
AcDbPolyline
 90
       36
 70
   128
 43
0.0
 10
-1081.5805533094
 20
-1770.4520688555
 10
-1082.0143021292
 20
-1770.2244393806
 10
-1082.4118627923
 20
-1769.9104327205
 10
-1082.7604573718
 20
-1769.5201413075
 10
-1083.0488817512
 20
-1769.0661094289
 10
-1083.2678657336
 20
-1768.5629300429
 10
-1083.4103709935
 20
-1768.0267757488
 10
-1083.4718172948
 20
-1767.4748789868
 10
-1083.4502297026
 20
-1766.9249781731
 10
-1083.3463020601
 20
-1766.3947475722
 10
-1083.1633746871
 20
-1765.9012292318
 10
-1082.9073270198
 20
-1765.4602852376
 10
-1082.5863886412
 20
-1765.0860878922
 10
-1082.2108747745
 20
-1764.7906642064
 10
-1081.7928547446
 20
-1764.5835093403
 10
-1081.3457640592
 20
-1764.4712814219
 10
-1080.8839725806
 20
-1764.4575875488
 10
-1080.4223226671
 20
-1764.5428678533
 10
-1079.9756521267
 20
-1764.7243813564
 10
-1079.558317318
 20
-1764.9962940645
 10
-1079.1837317252
 20
-1765.3498664796
 10
-1078.8639348375
 20
-1765.7737344934
 10
-1078.60920519
 20
-1766.2542746391
 10
-1078.4277300031
 20
-1766.776041961
 10
-1078.3253420386
 20
-1767.3222664281
 10
-1078.3053321301
 20
-1767.8753919367
 10
-1078.3683434123
 20
-1768.4176405776
 10
-1078.5123506509
 20
-1768.9315840335
 10
-1078.7327253347
 20
-1769.4007037388
 10
-1079.0223844401
 20
-1769.8099218002
 10
-1079.372018085
 20
-1770.1460856125
 10
-1079.7703887564
 20
-1770.3983905941
 10
-1080.2046924933
 20
-1770.5587274554
 10
-1080.6609704161
 20
-1770.6219428377
 10
-1081.1245573769
 20
-1770.5860049466
 10
-1081.5805533094
 20
-1770.4520688555
  0
SPLINE
  5
9E
330
1F
100
AcDbEntity
  8
0
  6
Continuous
 62
     7
370
    25
100
AcDbSpline
210
0.0
220
0.0
230
1.0
 70
     8
 71
     3
 72
    16
 73
    12
 74
     0
 42
0.00000001
 43
0.00000001
 40
0.0
 40
0.0
 40
0.0
 40
0.0
 40
0.1281045876626705
 40
0.2745059677305985
 40
0.3575191144184491
 40
0.4664615770743571
 40
0.5976346025213446
 40
0.7041042871452503
 40
0.8908238021566668
 40
0.9855072322016873
 40
1.0
 40
1.0
 40
1.0
 40
1.0
 10
-1110.348147479612
 20
-1747.790282611982
 30
0.0
 10
-1109.365338371665
 20
-1747.289061449788
 30
0.0
 10
-1107.106648570848
 20
-1746.664047661432
 30
0.0
 10
-1104.072418691867
 20
-1746.456009675833
 30
0.0
 10
-1101.18974984291
 20
-1746.500389331818
 30
0.0
 10
-1098.430543042429
 20
-1746.942650848706
 30
0.0
 10
-1095.568476862454
 20
-1748.328604575381
 30
0.0
 10
-1092.758468890122
 20
-1751.338034037387
 30
0.0
 10
-1091.232459673618
 20
-1755.297321397739
 30
0.0
 10
-1090.479185295432
 20
-1757.794328357469
 30
0.0
 10
-1090.118084454163
 20
-1759.108291242277
 30
0.0
 10
-1090.215257342624
 20
-1759.214892883226
 30
0.0
  0
SPLINE
  5
A0
330
1F
100
AcDbEntity
  8
0
  6
Continuous
 62
     7
370
    25
100
AcDbSpline
210
0.0
220
0.0
230
1.0
 70
     8
 71
     3
 72
    11
 73
     7
 74
     0
 42
0.00000001
 43
0.00000001
 40
0.3472123443083204
 40
0.3472123443083204
 40
0.3472123443083204
 40
0.3472123443083204
 40
0.4560742544326319
 40
0.6048173275846778
 40
0.8582235946846501
 40
1.0
 40
1.0
 40
1.0
 40
1.0
 10
-1118.580209759325
 20
-1761.101545293503
 30
0.0
 10
-1118.305098774788
 20
-1760.207286827355
 30
0.0
 10
-1117.617132012212
 20
-1758.10753123451
 30
0.0
 10
-1115.995791561159
 20
-1754.129731055585
 30
0.0
 10
-1113.89517213745
 20
-1749.922763825994
 30
0.0
 10
-1111.286964308656
 20
-1748.285327972035
 30
0.0
 10
-1110.348147479612
 20
-1747.790282611982
 30
0.0
  0
SPLINE
  5
B1
330
1F
100
AcDbEntity
  8
0
  6
Continuous
 62
     7
370
    25
100
AcDbSpline
210
0.0
220
0.0
230
1.0
 70
     8
 71
     3
 72
     9
 73
     5
 74
     0
 42
0.00000001
 43
0.00000001
 40
0.0
 40
0.0
 40
0.0
 40
0.0
 40
0.6013797170253569
 40
1.0
 40
1.0
 40
1.0
 40
1.0
 10
-1108.022658027756
 20
-1706.31329852563
 30
0.0
 10
-1109.237201284132
 20
-1706.012674353794
 30
0.0
 10
-1110.719291019928
 20
-1704.360879350048
 30
0.0
 10
-1112.397394301477
 20
-1703.1216767546
 30
0.0
 10
-1113.211456125874
 20
-1702.931350227007
 30
0.0
  0
SPLINE
  5
B2
330
1F
100
AcDbEntity
  8
0
  6
Continuous
 62
     7
370
    25
100
AcDbSpline
210
0.0
220
0.0
230
1.0
 70
     8
 71
     3
 72
    13
 73
     9
 74
     0
 42
0.00000001
 43
0.00000001
 40
0.0
 40
0.0
 40
0.0
 40
0.0
 40
0.1140657627239849
 40
0.2117947614017587
 40
0.2823987123242404
 40
0.3959212952876764
 40
0.665471593959473
 40
1.0
 40
1.0
 40
1.0
 40
1.0
 10
-1104.264833585125
 20
-1724.366706353069
 30
0.0
 10
-1103.37915571132
 20
-1724.314191547126
 30
0.0
 10
-1101.895232653438
 20
-1723.584058119903
 30
0.0
 10
-1100.096985744612
 20
-1722.163742639802
 30
0.0
 10
-1098.994795662509
 20
-1719.980936318305
 30
0.0
 10
-1097.94068353197
 20
-1716.007694250949
 30
0.0
 10
-1100.635446704904
 20
-1708.728346996074
 30
0.0
 10
-1105.595204350735
 20
-1707.237504788323
 30
0.0
 10
-1108.022658027756
 20
-1706.31329852563
 30
0.0
  0
SPLINE
  5
C4
330
1F
100
AcDbEntity
  8
0
  6
Continuous
 62
     7
370
    25
100
AcDbSpline
210
0.0
220
0.0
230
1.0
 70
     8
 71
     3
 72
    14
 73
    10
 74
     0
 42
0.00000001
 43
0.00000001
 40
0.0
 40
0.0
 40
0.0
 40
0.0
 40
0.1036980891816531
 40
0.174611051862171
 40
0.3008749602725549
 40
0.4308549751484764
 40
0.551223154491394
 40
0.7215046176380058
 40
0.8890667021919185
 40
0.8890667021919185
 40
0.8890667021919185
 40
0.8890667021919185
 10
-1144.681717862081
 20
-1746.657578698644
 30
0.0
 10
-1143.63577323415
 20
-1746.674668285894
 30
0.0
 10
-1141.9394247169
 20
-1747.27366408331
 30
0.0
 10
-1138.932343933524
 20
-1747.950060704885
 30
0.0
 10
-1136.120086518214
 20
-1750.404155903181
 30
0.0
 10
-1133.57665245552
 20
-1753.93970401039
 30
0.0
 10
-1131.842151343086
 20
-1758.694425416391
 30
0.0
 10
-1130.863946354036
 20
-1764.090572761736
 30
0.0
 10
-1130.343760633443
 20
-1768.121533431271
 30
0.0
 10
-1130.26273584766
 20
-1770.113390935415
 30
0.0
  0
SPLINE
  5
C6
330
1F
100
AcDbEntity
  8
0
  6
Continuous
 62
     7
370
    25
100
AcDbSpline
210
0.0
220
0.0
230
1.0
 70
     8
 71
     3
 72
     9
 73
     5
 74
     0
 42
0.00000001
 43
0.00000001
 40
0.0958671968529492
 40
0.0958671968529492
 40
0.0958671968529492
 40
0.0958671968529492
 40
0.3418427063532766
 40
0.7981939890023512
 40
0.7981939890023512
 40
0.7981939890023512
 40
0.7981939890023512
 10
-1143.343570129719
 20
-1754.260009112261
 30
0.0
 10
-1141.557348174269
 20
-1754.985644539759
 30
0.0
 10
-1136.783848248549
 20
-1758.643495064935
 30
0.0
 10
-1134.651520250221
 20
-1765.098737577633
 30
0.0
 10
-1134.129859745184
 20
-1769.271475768698
 30
0.0
  0
LWPOLYLINE
  5
CB
330
1F
100
AcDbEntity
  8
0
  6
Continuous
 62
     7
370
    25
100
AcDbPolyline
 90
        3
 70
   128
 43
0.0
 10
-1128.6143869237
 20
-1695.9128513179
 10
-1128.2644776826
 20
-1695.8827402915
 10
-1127.7741975389
 20
-1695.9395962273
  0
SPLINE
  5
CD
330
1F
100
AcDbEntity
  8
0
  6
Continuous
 62
     7
370
    25
100
AcDbSpline
210
0.0
220
0.0
230
1.0
 70
     8
 71
     3
 72
    12
 73
     8
 74
     0
 42
0.00000001
 43
0.00000001
 40
0.0
 40
0.0
 40
0.0
 40
0.0
 40
0.2102474452235364
 40
0.4200120847493979
 40
0.62993603917058
 40
0.8772584440103426
 40
1.0
 40
1.0
 40
1.0
 40
1.0
 10
-1111.537231550553
 20
-1768.465720224863
 30
0.0
 10
-1111.494214244271
 20
-1767.891592511946
 30
0.0
 10
-1111.40827841531
 20
-1766.744655495145
 30
0.0
 10
-1111.113696144244
 20
-1765.064757480191
 30
0.0
 10
-1110.757262085305
 20
-1763.304606225963
 30
0.0
 10
-1110.404641856984
 20
-1761.788036747937
 30
0.0
 10
-1110.124879558827
 20
-1760.845572989743
 30
0.0
 10
-1110.032088951209
 20
-1760.532979815619
 30
0.0
  0
LWPOLYLINE
  5
D5
330
1F
100
AcDbEntity
  8
0
  6
Continuous
 62
     7
370
    25
100
AcDbPolyline
 90
       15
 70
   128
 43
0.0
 10
-1111.4627239585
 20
-1774.7047106661
 10
-1111.2442752953
 20
-1775.4732266426
 10
-1111.1081396068
 20
-1776.2625685158
 10
-1111.0565402486
 20
-1777.0598448285
 10
-1111.0903199362
 20
-1777.8520345391
 10
-1111.2089269832
 20
-1778.62619968
 10
-1111.4104243104
 20
-1779.3696966589
 10
-1111.6915210824
 20
-1780.0703827533
 10
-1112.0476264532
 20
-1780.716814424
 10
-1112.4729245435
 20
-1781.2984342097
 10
-1112.9604694249
 20
-1781.8057431509
 10
-1113.5022985603
 20
-1782.2304559258
 10
-1114.0895628474
 20
-1782.5656361654
 10
-1114.7126711412
 20
-1782.8058097376
 10
-1115.2177920274
 20
-1782.9247399161
  0
LINE
  5
D6
330
1F
100
AcDbEntity
  8
0
  6
Continuous
 62
     7
370
    25
100
AcDbLine
 10
-1064.9002964839
 20
-1777.1145619718
 30
0.0
 11
-1059.3848473508
 21
-1776.1621880829
 31
0.0
  0
LINE
  5
D7
330
1F
100
AcDbEntity
  8
0
  6
Continuous
 62
     7
370
    25
100
AcDbLine
 10
-1103.8444976916
 20
-1746.2201916524
 30
0.0
 11
-1107.1537671714
 21
-1746.7916159858
 31
0.0
  0
LINE
  5
D8
330
1F
100
AcDbEntity
  8
0
  6
Continuous
 62
     7
370
    25
100
AcDbLine
 10
-1103.8744424245
 20
-1724.3213286381
 30
0.0
 11
-1100.5651729446
 21
-1723.7499043048
 31
0.0
  0
LINE
  5
D9
330
1F
100
AcDbEntity
  8
0
  6
Continuous
 62
     7
370
    25
100
AcDbLine
 10
-1128.6143869237
 20
-1695.9128513179
 30
0.0
 11
-1137.4391055366
 21
-1697.4366495402
 31
0.0
  0
LINE
  5
DA
330
1F
100
AcDbEntity
  8
0
  6
Continuous
 62
     7
370
    25
100
AcDbLine
 10
-1120.7332411605
 20
-1783.877113805
 30
0.0
 11
-1115.2177920274
 21
-1782.9247399161
 31
0.0
  0
LINE
  5
DB
330
1F
100
AcDbEntity
  8
0
  6
Continuous
 62
     7
370
    25
100
AcDbLine
 10
-1086.9059878628
 20
-1758.6434685499
 30
0.0
 11
-1086.0988690328
 21
-1767.3512521523
 31
0.0
  0
LINE
  5
DC
330
1F
100
AcDbEntity
  8
0
  6
Continuous
 62
     7
370
    25
100
AcDbLine
 10
-1117.0526806836
 20
-1769.4180941138
 30
0.0
 11
-1116.9781730916
 21
-1775.6570845551
 31
0.0
  0
LINE
  5
DD
330
1F
100
AcDbEntity
  8
0
  6
Continuous
 62
     7
370
    25
100
AcDbLine
 10
-1127.0622471145
 20
-1773.4824394903
 30
0.0
 11
-1126.9525681374
 21
-1776.2582169364
 31
0.0
  0
LINE
  5
DE
330
1F
100
AcDbEntity
  8
0
  6
Continuous
 62
     7
370
    25
100
AcDbLine
 10
-1139.5974517162
 20
-1730.3157050434
 30
0.0
 11
-1141.3724483822
 21
-1746.0861543653
 31
0.0
  0
LINE
  5
DF
330
1F
100
AcDbEntity
  8
0
  6
Continuous
 62
     7
370
    25
100
AcDbLine
 10
-1109.902186646
 20
-1702.3599258937
 30
0.0
 11
-1059.2708190244
 21
-1713.3829283735
 31
0.0
  0
LINE
  5
E0
330
1F
100
AcDbEntity
  8
0
  6
Continuous
 62
     7
370
    25
100
AcDbLine
 10
-1057.0827477735
 20
-1716.8608514285
 30
0.0
 11
-1062.9259809417
 21
-1774.6992748613
 31
0.0
  0
LINE
  5
E1
330
1F
100
AcDbEntity
  8
0
  6
Continuous
 62
     7
370
    25
100
AcDbLine
 10
-1065.707475496
 20
-1777.095269089
 30
0.0
 11
-1081.5065263786
 21
-1773.6556429198
 31
0.0
  0
LINE
  5
E2
330
1F
100
AcDbEntity
  8
0
  6
Continuous
 62
     7
370
    25
100
AcDbLine
 10
-1077.6893765956
 20
-1720.7843948338
 30
0.0
 11
-1078.3586753133
 21
-1727.6422566609
 31
0.0
  0
LINE
  5
E3
330
1F
100
AcDbEntity
  8
0
  6
Continuous
 62
     7
370
    25
100
AcDbLine
 10
-1069.402904777
 20
-1722.5487200549
 30
0.0
 11
-1070.0722034947
 21
-1729.406581882
 31
0.0
  0
LINE
  5
E4
330
1F
100
AcDbEntity
  8
0
  6
Continuous
 62
     7
370
    25
100
AcDbLine
 10
-1051.5672986404
 20
-1715.9084775396
 30
0.0
 11
-1057.0827477735
 21
-1716.8608514285
 31
0.0
  0
LINE
  5
E5
330
1F
100
AcDbEntity
  8
0
  6
Continuous
 62
     7
370
    25
100
AcDbLine
 10
-1051.5672986404
 20
-1715.9084775396
 30
0.0
 11
-1057.4105318086
 21
-1773.7469009724
 31
0.0
  0
LINE
  5
E6
330
1F
100
AcDbEntity
  8
0
  6
Continuous
 62
     7
370
    25
100
AcDbLine
 10
-1062.9259809417
 20
-1774.6992748613
 30
0.0
 11
-1057.4105318086
 21
-1773.7469009724
 31
0.0
  0
LINE
  5
E7
330
1F
100
AcDbEntity
  8
0
  6
Continuous
 62
     7
370
    25
100
AcDbLine
 10
-1059.2708190244
 20
-1713.3829283735
 30
0.0
 11
-1053.7553698913
 21
-1712.4305544846
 31
0.0
  0
LINE
  5
E8
330
1F
100
AcDbEntity
  8
0
  6
Continuous
 62
     7
370
    25
100
AcDbLine
 10
-1104.386737513
 20
-1701.4075520047
 30
0.0
 11
-1113.2114561259
 21
-1702.931350227
 31
0.0
  0
LINE
  5
E9
330
1F
100
AcDbEntity
  8
0
  6
Continuous
 62
     7
370
    25
100
AcDbLine
 10
-1104.386737513
 20
-1701.4075520047
 30
0.0
 11
-1053.7553698913
 21
-1712.4305544846
 31
0.0
  0
LINE
  5
EA
330
1F
100
AcDbEntity
  8
0
  6
Continuous
 62
     7
370
    25
100
AcDbLine
 10
-1072.1739274626
 20
-1719.8320209449
 30
0.0
 11
-1077.6893765956
 21
-1720.7843948338
 31
0.0
  0
LINE
  5
EB
330
1F
100
AcDbEntity
  8
0
  6
Continuous
 62
     7
370
    25
100
AcDbLine
 10
-1072.8432261803
 20
-1726.689882772
 30
0.0
 11
-1078.3586753133
 21
-1727.6422566609
 31
0.0
  0
LINE
  5
EC
330
1F
100
AcDbEntity
  8
0
  6
Continuous
 62
     7
370
    25
100
AcDbLine
 10
-1072.1739274626
 20
-1719.8320209449
 30
0.0
 11
-1072.8432261803
 21
-1726.689882772
 31
0.0
  0
LINE
  5
ED
330
1F
100
AcDbEntity
  8
0
  6
Continuous
 62
     7
370
    25
100
AcDbLine
 10
-1090.2152573426
 20
-1759.2148928832
 30
0.0
 11
-1086.9059878628
 21
-1758.6434685499
 31
0.0
  0
LINE
  5
EE
330
1F
100
AcDbEntity
  8
0
  6
Continuous
 62
     7
370
    25
100
AcDbLine
 10
-1118.5802097593
 20
-1761.1015452935
 30
0.0
 11
-1090.2152573426
 21
-1759.2148928832
 31
0.0
  0
LINE
  5
EF
330
1F
100
AcDbEntity
  8
0
  6
Continuous
 62
     7
370
    25
100
AcDbLine
 10
-1111.2609293276
 20
-1753.9386811843
 30
0.0
 11
-1099.820261528
 21
-1752.0124011248
 31
0.0
  0
LINE
  5
F0
330
1F
100
AcDbEntity
  8
0
  6
Continuous
 62
     7
370
    25
100
AcDbLine
 10
-1099.3377218456
 20
-1749.9030100699
 30
0.0
 11
-1099.1703964083
 21
-1750.8889098809
 31
0.0
  0
LINE
  5
F1
330
1F
100
AcDbEntity
  8
0
  6
Continuous
 62
     7
370
    25
100
AcDbLine
 10
-1111.7629056396
 20
-1750.9809817512
 30
0.0
 11
-1100.32223784
 21
-1749.0547016917
 31
0.0
  0
LINE
  5
F2
330
1F
100
AcDbEntity
  8
0
  6
Continuous
 62
     7
370
    25
100
AcDbLine
 10
-1112.4127707593
 20
-1752.1044729951
 30
0.0
 11
-1112.245445322
 21
-1753.0903728061
 31
0.0
  0
LINE
  5
F3
330
1F
100
AcDbEntity
  8
0
  6
Continuous
 62
     7
370
    25
100
AcDbLine
 10
-1110.1885896124
 20
-1717.2515159365
 30
0.0
 11
-1133.0699252114
 21
-1721.1040760555
 31
0.0
  0
LINE
  5
F4
330
1F
100
AcDbEntity
  8
0
  6
Continuous
 62
     7
370
    25
100
AcDbLine
 10
-1133.5524648939
 20
-1723.2134671104
 30
0.0
 11
-1133.7197903312
 21
-1722.2275672994
 31
0.0
  0
LINE
  5
F5
330
1F
100
AcDbEntity
  8
0
  6
Continuous
 62
     7
370
    25
100
AcDbLine
 10
-1109.6866133004
 20
-1720.2092153696
 30
0.0
 11
-1132.5679488995
 21
-1724.0617754886
 31
0.0
  0
LINE
  5
F6
330
1F
100
AcDbEntity
  8
0
  6
Continuous
 62
     7
370
    25
100
AcDbLine
 10
-1109.0367481806
 20
-1719.0857241257
 30
0.0
 11
-1109.2040736179
 21
-1718.0998243147
 31
0.0
  0
LINE
  5
F7
330
1F
100
AcDbEntity
  8
0
  6
Continuous
 62
     7
370
    25
100
AcDbLine
 10
-1104.2648335851
 20
-1724.3667063531
 30
0.0
 11
-1142.9050876852
 21
-1730.8726159968
 31
0.0
  0
LINE
  5
F8
330
1F
100
AcDbEntity
  8
0
  6
Continuous
 62
     7
370
    25
100
AcDbLine
 10
-1139.4092564991
 20
-1699.8129359344
 30
0.0
 11
-1142.9050876852
 21
-1730.8726159968
 31
0.0
  0
LINE
  5
F9
330
1F
100
AcDbEntity
  8
0
  6
Continuous
 62
     7
370
    25
100
AcDbLine
 10
-1113.2114561259
 20
-1702.931350227
 30
0.0
 11
-1136.5989161518
 21
-1697.4633944495
 31
0.0
  0
LINE
  5
FA
330
1F
100
AcDbEntity
  8
0
  6
Continuous
 62
     7
370
    25
100
AcDbLine
 10
-1108.0226580278
 20
-1706.3132985256
 30
0.0
 11
-1104.7133885479
 21
-1705.7418741923
 31
0.0
  0
LINE
  5
FB
330
1F
100
AcDbEntity
  8
0
  6
Continuous
 62
     7
370
    25
100
AcDbLine
 10
-1102.4362107147
 20
-1752.414882962
 30
0.0
 11
-1111.2609293276
 21
-1753.9386811843
 31
0.0
  0
LINE
  5
FC
330
1F
100
AcDbEntity
  8
0
  6
Continuous
 62
     7
370
    25
100
AcDbLine
 10
-1102.4362107147
 20
-1752.414882962
 30
0.0
 11
-1099.6050059059
 21
-1751.9381893404
 31
0.0
  0
LINE
  5
FD
330
1F
100
AcDbEntity
  8
0
  6
Continuous
 62
     7
370
    25
100
AcDbLine
 10
-1123.7432302865
 20
-1722.5379772663
 30
0.0
 11
-1132.5679488995
 21
-1724.0617754886
 31
0.0
  0
LINE
  5
FE
330
1F
100
AcDbEntity
  8
0
  6
Continuous
 62
     7
370
    25
100
AcDbLine
 10
-1109.4713576783
 20
-1720.1350035852
 30
0.0
 11
-1123.7432302865
 21
-1722.5379772663
 31
0.0
  0
LINE
  5
FF
330
1F
100
AcDbEntity
  8
0
  6
Continuous
 62
     7
370
    25
100
AcDbLine
 10
-1127.7741975389
 20
-1695.9395962273
 30
0.0
 11
-1136.5989161518
 21
-1697.4633944495
 31
0.0
  0
LINE
  5
100
330
1F
100
AcDbEntity
  8
0
  6
Continuous
 62
     7
370
    25
100
AcDbLine
 10
-1104.386737513
 20
-1701.4075520047
 30
0.0
 11
-1127.7741975389
 21
-1695.9395962273
 31
0.0
  0
LINE
  5
101
330
1F
100
AcDbEntity
  8
0
  6
Continuous
 62
     7
370
    25
100
AcDbLine
 10
-1112.245445322
 20
-1753.0903728061
 30
0.0
 11
-1103.4207267091
 21
-1751.5665745838
 31
0.0
  0
LINE
  5
102
330
1F
100
AcDbEntity
  8
0
  6
Continuous
 62
     7
370
    25
100
AcDbLine
 10
-1103.5880521464
 20
-1750.5806747728
 30
0.0
 11
-1112.4127707593
 21
-1752.1044729951
 31
0.0
  0
LINE
  5
103
330
1F
100
AcDbEntity
  8
0
  6
Continuous
 62
     7
370
    25
100
AcDbLine
 10
-1103.5880521464
 20
-1750.5806747728
 30
0.0
 11
-1103.4207267091
 21
-1751.5665745838
 31
0.0
  0
LINE
  5
104
330
1F
100
AcDbEntity
  8
0
  6
Continuous
 62
     7
370
    25
100
AcDbLine
 10
-1134.1298597452
 20
-1769.2714757687
 30
0.0
 11
-1130.2627358477
 21
-1770.1133909354
 31
0.0
  0
LINE
  5
105
330
1F
100
AcDbEntity
  8
0
  6
Continuous
 62
     7
370
    25
100
AcDbLine
 10
-1144.6817178621
 20
-1746.6575786986
 30
0.0
 11
-1145.1545841733
 21
-1750.858890363
 31
0.0
  0
LINE
  5
106
330
1F
100
AcDbEntity
  8
0
  6
Continuous
 62
     7
370
    25
100
AcDbLine
 10
-1130.2627358477
 20
-1770.1133909354
 30
0.0
 11
-1126.9534663678
 21
-1769.5419666021
 31
0.0
  0
LINE
  5
107
330
1F
100
AcDbEntity
  8
0
  6
Continuous
 62
     7
370
    25
100
AcDbLine
 10
-1144.6817178621
 20
-1746.6575786986
 30
0.0
 11
-1141.3724483822
 21
-1746.0861543653
 31
0.0
  0
LINE
  5
108
330
1F
100
AcDbEntity
  8
0
  6
Continuous
 62
     7
370
    25
100
AcDbLine
 10
-1111.5372315506
 20
-1768.4657202249
 30
0.0
 11
-1117.0526806836
 21
-1769.4180941138
 31
0.0
  0
LINE
  5
109
330
1F
100
AcDbEntity
  8
0
  6
Continuous
 62
     7
370
    25
100
AcDbLine
 10
-1133.5524648939
 20
-1723.2134671104
 30
0.0
 11
-1124.727746281
 21
-1721.6896688881
 31
0.0
  0
LINE
  5
10A
330
1F
100
AcDbEntity
  8
0
  6
Continuous
 62
     7
370
    25
100
AcDbLine
 10
-1124.8950717183
 20
-1720.7037690771
 30
0.0
 11
-1133.7197903312
 21
-1722.2275672994
 31
0.0
  0
LINE
  5
10B
330
1F
100
AcDbEntity
  8
0
  6
Continuous
 62
     7
370
    25
100
AcDbLine
 10
-1124.727746281
 20
-1721.6896688881
 30
0.0
 11
-1124.8950717183
 21
-1720.7037690771
 31
0.0
  0
LINE
  5
10C
330
1F
100
AcDbEntity
  8
0
  6
Continuous
 62
     7
370
    25
100
AcDbLine
 10
-1111.4627239585
 20
-1774.7047106661
 30
0.0
 11
-1116.9781730916
 21
-1775.6570845551
 31
0.0
  0
LINE
  5
10D
330
1F
100
AcDbEntity
  8
0
  6
Continuous
 62
     7
370
    25
100
AcDbLine
 10
-1111.5372315506
 20
-1768.4657202249
 30
0.0
 11
-1111.4627239585
 21
-1774.7047106661
 31
0.0
  0
ARC
  5
10E
330
1F
100
AcDbEntity
  8
0
  6
Continuous
 62
     7
370
    25
100
AcDbCircle
 10
-1079.6021847742
 20
-1767.4436443899
 30
0.0
 40
6.49734120097243
100
AcDbArc
 50
179.1852261515
 51
252.9566284481
  0
ARC
  5
10F
330
1F
100
AcDbEntity
  8
0
  6
Continuous
 62
     7
370
    25
100
AcDbCircle
 10
-1130.3979162791
 20
-1772.1508813288
 30
0.0
 40
3.43383899222572
100
AcDbArc
 50
355.9483335834
 51
45.1072277445
  0
ARC
  5
110
330
1F
100
AcDbEntity
  8
0
  6
Continuous
 62
     7
370
    25
100
AcDbCircle
 10
-1060.2130687759
 20
-1716.4029813517
 30
0.0
 40
3.16362996973101
100
AcDbArc
 50
351.6783938275
 51
72.6721954021
  0
ARC
  5
111
330
1F
100
AcDbEntity
  8
0
  6
Continuous
 62
     7
370
    25
100
AcDbCircle
 10
-1065.3523198
 20
-1774.6950602544
 30
0.0
 40
2.42634251874996
100
AcDbArc
 50
261.583094034
 51
359.9004760005
  0
ARC
  5
112
330
1F
100
AcDbEntity
  8
0
  6
Continuous
 62
     7
370
    25
100
AcDbCircle
 10
-1054.6976196428
 20
-1715.4506074628
 30
0.0
 40
3.163629969729316
100
AcDbArc
 50
351.6783938275
 51
72.6721954021
  0
ARC
  5
113
330
1F
100
AcDbEntity
  8
0
  6
Continuous
 62
     7
370
    25
100
AcDbCircle
 10
-1067.0217460928
 20
-1720.2849945484
 30
0.0
 40
5.172055486253305
100
AcDbArc
 50
148.1659026608
 51
174.9755431151
  0
ARC
  5
114
330
1F
100
AcDbEntity
  8
0
  6
Continuous
 62
     7
370
    25
100
AcDbCircle
 10
-1067.2079242423
 20
-1727.3192179982
 30
0.0
 40
5.670334272272314
100
AcDbArc
 50
173.6277664199
 51
230.2952177484
  0
ARC
  5
115
330
1F
100
AcDbEntity
  8
0
  6
Continuous
 62
     7
370
    25
100
AcDbCircle
 10
-1059.9338902343
 20
-1773.698816041
 30
0.0
 40
2.523816535480605
100
AcDbArc
 50
282.5648615781
 51
358.9083079939
  0
ARC
  5
116
330
1F
100
AcDbEntity
  8
0
  6
Continuous
 62
     7
370
    25
100
AcDbCircle
 10
-1111.3207769278
 20
-1753.012687142
 30
0.0
 40
0.9279260216039324
100
AcDbArc
 50
184.8024051627
 51
273.6979205193
  0
ARC
  5
117
330
1F
100
AcDbEntity
  8
0
  6
Continuous
 62
     7
370
    25
100
AcDbCircle
 10
-1100.0660335896
 20
-1751.1205407563
 30
0.0
 40
0.9251047632542695
100
AcDbArc
 50
285.4067346338
 51
14.500200939
  0
ARC
  5
118
330
1F
100
AcDbEntity
  8
0
  6
Continuous
 62
     7
370
    25
100
AcDbCircle
 10
-1100.2623902398
 20
-1749.980695734
 30
0.0
 40
0.9279260216031593
100
AcDbArc
 50
4.8024051627
 51
93.6979205193
  0
ARC
  5
119
330
1F
100
AcDbEntity
  8
0
  6
Continuous
 62
     7
370
    25
100
AcDbCircle
 10
-1111.517133578
 20
-1751.8728421196
 30
0.0
 40
0.9251047632541444
100
AcDbArc
 50
105.4067346338
 51
194.5002009391
  0
ARC
  5
11A
330
1F
100
AcDbEntity
  8
0
  6
Continuous
 62
     7
370
    25
100
AcDbCircle
 10
-1110.1287420121
 20
-1718.1775099788
 30
0.0
 40
0.9279260216034934
100
AcDbArc
 50
4.8024051627
 51
93.6979205193
  0
ARC
  5
11B
330
1F
100
AcDbEntity
  8
0
  6
Continuous
 62
     7
370
    25
100
AcDbCircle
 10
-1132.8241531499
 20
-1721.995936424
 30
0.0
 40
0.9251047632544215
100
AcDbArc
 50
105.4067346338
 51
194.5002009391
  0
ARC
  5
11C
330
1F
100
AcDbEntity
  8
0
  6
Continuous
 62
     7
370
    25
100
AcDbCircle
 10
-1132.6277964997
 20
-1723.1357814463
 30
0.0
 40
0.9279260216027833
100
AcDbArc
 50
184.8024051627
 51
273.6979205193
  0
ARC
  5
11D
330
1F
100
AcDbEntity
  8
0
  6
Continuous
 62
     7
370
    25
100
AcDbCircle
 10
-1109.9323853619
 20
-1719.3173550011
 30
0.0
 40
0.9251047632532147
100
AcDbArc
 50
285.4067346337
 51
14.5002009391
  0
ARC
  5
11E
330
1F
100
AcDbEntity
  8
0
  6
Continuous
 62
     7
370
    25
100
AcDbCircle
 10
-1136.9948253723
 20
-1699.8453653183
 30
0.0
 40
2.41464890423925
100
AcDbArc
 50
80.5630944591
 51
179.2304791443
  0
ARC
  5
11F
330
1F
100
AcDbEntity
  8
0
  6
Continuous
 62
     7
370
    25
100
AcDbCircle
 10
-1102.4960583149
 20
-1751.4888889198
 30
0.0
 40
0.9279260216037055
100
AcDbArc
 50
184.8024051627
 51
273.6979205193
  0
ARC
  5
120
330
1F
100
AcDbEntity
  8
0
  6
Continuous
 62
     7
370
    25
100
AcDbCircle
 10
-1102.6156478549
 20
-1750.3687957952
 30
0.0
 40
0.9952199793831404
100
AcDbArc
 50
122.70936178
 51
192.2921562732
  0
ARC
  5
121
330
1F
100
AcDbEntity
  8
0
  6
Continuous
 62
     7
370
    25
100
AcDbCircle
 10
-1141.9190135571
 20
-1751.3187468387
 30
0.0
 40
3.268085860329895
100
AcDbArc
 50
171.9109941855
 51
244.1574639001
  0
ARC
  5
122
330
1F
100
AcDbEntity
  8
0
  6
Continuous
 62
     7
370
    25
100
AcDbCircle
 10
-1123.8030778868
 20
-1721.6119832241
 30
0.0
 40
0.927926021603481
100
AcDbArc
 50
184.8024051627
 51
273.6979205193
  0
ARC
  5
123
330
1F
100
AcDbEntity
  8
0
  6
Continuous
 62
     7
370
    25
100
AcDbCircle
 10
-1123.9226674268
 20
-1720.4918900995
 30
0.0
 40
0.9952199793858313
100
AcDbArc
 50
122.70936178
 51
192.2921562731
  0
MTEXT
  5
125
330
1F
100
AcDbEntity
  8
0
  6
Continuous
 62
     7
100
AcDbMText
 10
-1145.1870994175
 20
-1784.9590028933
 30
0.0
 40
4.83362
 41
0.0
 71
     1
 72
     1
  1
SOLIDWORKS Educational Product.
  7
SLDTEXTSTYLE0
 73
     1
 44
1.0
  0
MTEXT
  5
126
330
1F
100
AcDbEntity
  8
0
  6
Continuous
 62
     7
100
AcDbMText
 10
-1145.1870994175
 20
-1792.2094328933
 30
0.0
 40
4.83362
 41
0.0
 71
     1
 72
     1
  1
For Instructional Use Only.
  7
SLDTEXTSTYLE0
 73
     1
 44
1.0
  0
ENDSEC
  0
SECTION
  2
OBJECTS
  0
DICTIONARY
  5
C
330
0
100
AcDbDictionary
281
     1
  3
ACAD_GROUP
350
D
  3
ACAD_LAYOUT
350
1A
  3
ACAD_MLINESTYLE
350
17
  3
ACAD_PLOTSETTINGS
350
19
  3
ACAD_PLOTSTYLENAME
350
E
  3
ACAD_SCALELIST
350
47
  3
DWGPROPS
350
127
  0
DICTIONARY
  5
D
102
{ACAD_REACTORS
330
C
102
}
330
C
100
AcDbDictionary
281
     1
  0
DICTIONARY
  5
1A
102
{ACAD_REACTORS
330
C
102
}
330
C
100
AcDbDictionary
281
     1
  3
Layout1
350
1E
  3
Layout2
350
26
  3
Model
350
22
  0
DICTIONARY
  5
17
102
{ACAD_REACTORS
330
C
102
}
330
C
100
AcDbDictionary
281
     1
  3
Standard
350
18
  0
DICTIONARY
  5
19
102
{ACAD_REACTORS
330
C
102
}
330
C
100
AcDbDictionary
281
     1
  0
ACDBDICTIONARYWDFLT
  5
E
102
{ACAD_REACTORS
330
C
102
}
330
C
100
AcDbDictionary
281
     1
  3
Normal
350
F
100
AcDbDictionaryWithDefault
340
F
  0
DICTIONARY
  5
47
102
{ACAD_REACTORS
330
C
102
}
330
C
100
AcDbDictionary
281
     1
  3
A0
350
48
  3
A1
350
49
  3
A2
350
4A
  3
A3
350
4B
  3
A4
350
4C
  3
A5
350
4D
  3
A6
350
4E
  3
A7
350
4F
  3
A8
350
50
  3
A9
350
51
  3
B0
350
52
  3
B1
350
53
  3
B2
350
54
  3
B3
350
55
  3
B4
350
56
  3
B5
350
57
  3
B6
350
58
  3
B7
350
59
  3
B8
350
5A
  3
B9
350
5B
  3
C0
350
5C
  3
C1
350
5D
  3
C2
350
5E
  3
C3
350
5F
  3
C4
350
60
  3
C5
350
61
  3
C6
350
62
  3
C7
350
63
  3
C8
350
64
  3
C9
350
65
  3
D0
350
66
  3
D1
350
67
  3
D2
350
68
  0
XRECORD
  5
127
102
{ACAD_REACTORS
330
C
102
}
330
C
100
AcDbXrecord
280
     1
  1
DWGPROPS COOKIE
  2

  3

  4

  6

  7

  8
Shahmir
  9

300
=
301
=
302
=
303
=
304
=
305
=
306
=
307
=
308
=
309
=
 40
0.0
 41
2459584.873569074
 42
2459584.873782026
  1

 90
        0
  0
LAYOUT
  5
1E
102
{ACAD_REACTORS
330
1A
102
}
330
1A
100
AcDbPlotSettings
  1

  2
none_device
  4

  6

 40
0.0
 41
0.0
 42
0.0
 43
0.0
 44
0.0
 45
0.0
 46
0.0
 47
0.0
 48
0.0
 49
0.0
140
0.0
141
0.0
142
1.0
143
1.0
 70
   688
 72
     1
 73
     0
 74
     5
  7

 75
    16
147
1.0
148
0.0
149
0.0
100
AcDbLayout
  1
Layout1
 70
     1
 71
     1
 10
0.0
 20
0.0
 11
420.0
 21
297.0
 12
0.0
 22
0.0
 32
0.0
 14
1.0000000000E+20
 24
1.0000000000E+20
 34
1.0000000000E+20
 15
-1.0000000000E+20
 25
-1.0000000000E+20
 35
-1.0000000000E+20
146
0.0
 13
0.0
 23
0.0
 33
0.0
 16
1.0
 26
0.0
 36
0.0
 17
0.0
 27
1.0
 37
0.0
 76
     0
330
1B
  0
LAYOUT
  5
26
102
{ACAD_REACTORS
330
1A
102
}
330
1A
100
AcDbPlotSettings
  1

  2
none_device
  4

  6

 40
0.0
 41
0.0
 42
0.0
 43
0.0
 44
0.0
 45
0.0
 46
0.0
 47
0.0
 48
0.0
 49
0.0
140
0.0
141
0.0
142
1.0
143
1.0
 70
   688
 72
     1
 73
     0
 74
     5
  7

 75
    16
147
1.0
148
0.0
149
0.0
100
AcDbLayout
  1
Layout2
 70
     1
 71
     2
 10
0.0
 20
0.0
 11
0.0
 21
0.0
 12
0.0
 22
0.0
 32
0.0
 14
0.0
 24
0.0
 34
0.0
 15
0.0
 25
0.0
 35
0.0
146
0.0
 13
0.0
 23
0.0
 33
0.0
 16
1.0
 26
0.0
 36
0.0
 17
0.0
 27
1.0
 37
0.0
 76
     0
330
23
  0
LAYOUT
  5
22
102
{ACAD_REACTORS
330
1A
102
}
330
1A
100
AcDbPlotSettings
  1

  2
none_device
  4
ANSI_A_(11.00_x_8.50_Inches)
  6

 40
6.35
 41
19.05
 42
6.35000508
 43
19.05000254
 44
279.4
 45
215.9
 46
2799.4127871805
 47
4312.2055728725
 48
0.0
 49
0.0
140
0.0
141
0.0
142
0.0955634309
143
1.0
 70
  1696
 72
     0
 73
     0
 74
     0
  7

 75
     0
147
0.0179189148
148
-1300.4909072572
149
0.0
100
AcDbLayout
  1
Model
 70
     1
 71
     0
 10
0.0
 20
0.0
 11
420.0
 21
297.0
 12
0.0
 22
0.0
 32
0.0
 14
-1145.1870994175
 24
-1783.9394365016
 34
0.0
 15
-1051.5339896731
 25
-1695.8827402915
 35
0.0
146
0.0
 13
0.0
 23
0.0
 33
0.0
 16
1.0
 26
0.0
 36
0.0
 17
0.0
 27
1.0
 37
0.0
 76
     0
330
1F
331
29
  0
MLINESTYLE
  5
18
102
{ACAD_REACTORS
330
17
102
}
330
17
100
AcDbMlineStyle
  2
Standard
 70
     0
  3

 62
   256
 51
90.0
 52
90.0
 71
     2
 49
0.5
 62
   256
  6
BYLAYER
 49
-0.5
 62
   256
  6
BYLAYER
  0
ACDBPLACEHOLDER
  5
F
102
{ACAD_REACTORS
330
E
102
}
330
E
  0
SCALE
  5
48
102
{ACAD_REACTORS
330
47
102
}
330
47
100
AcDbScale
 70
     0
300
1:1
140
1.0
141
1.0
290
     1
  0
SCALE
  5
49
102
{ACAD_REACTORS
330
47
102
}
330
47
100
AcDbScale
 70
     0
300
1:2
140
1.0
141
2.0
290
     0
  0
SCALE
  5
4A
102
{ACAD_REACTORS
330
47
102
}
330
47
100
AcDbScale
 70
     0
300
1:4
140
1.0
141
4.0
290
     0
  0
SCALE
  5
4B
102
{ACAD_REACTORS
330
47
102
}
330
47
100
AcDbScale
 70
     0
300
1:5
140
1.0
141
5.0
290
     0
  0
SCALE
  5
4C
102
{ACAD_REACTORS
330
47
102
}
330
47
100
AcDbScale
 70
     0
300
1:8
140
1.0
141
8.0
290
     0
  0
SCALE
  5
4D
102
{ACAD_REACTORS
330
47
102
}
330
47
100
AcDbScale
 70
     0
300
1:10
140
1.0
141
10.0
290
     0
  0
SCALE
  5
4E
102
{ACAD_REACTORS
330
47
102
}
330
47
100
AcDbScale
 70
     0
300
1:16
140
1.0
141
16.0
290
     0
  0
SCALE
  5
4F
102
{ACAD_REACTORS
330
47
102
}
330
47
100
AcDbScale
 70
     0
300
1:20
140
1.0
141
20.0
290
     0
  0
SCALE
  5
50
102
{ACAD_REACTORS
330
47
102
}
330
47
100
AcDbScale
 70
     0
300
1:30
140
1.0
141
30.0
290
     0
  0
SCALE
  5
51
102
{ACAD_REACTORS
330
47
102
}
330
47
100
AcDbScale
 70
     0
300
1:40
140
1.0
141
40.0
290
     0
  0
SCALE
  5
52
102
{ACAD_REACTORS
330
47
102
}
330
47
100
AcDbScale
 70
     0
300
1:50
140
1.0
141
50.0
290
     0
  0
SCALE
  5
53
102
{ACAD_REACTORS
330
47
102
}
330
47
100
AcDbScale
 70
     0
300
1:100
140
1.0
141
100.0
290
     0
  0
SCALE
  5
54
102
{ACAD_REACTORS
330
47
102
}
330
47
100
AcDbScale
 70
     0
300
2:1
140
2.0
141
1.0
290
     0
  0
SCALE
  5
55
102
{ACAD_REACTORS
330
47
102
}
330
47
100
AcDbScale
 70
     0
300
4:1
140
4.0
141
1.0
290
     0
  0
SCALE
  5
56
102
{ACAD_REACTORS
330
47
102
}
330
47
100
AcDbScale
 70
     0
300
8:1
140
8.0
141
1.0
290
     0
  0
SCALE
  5
57
102
{ACAD_REACTORS
330
47
102
}
330
47
100
AcDbScale
 70
     0
300
10:1
140
10.0
141
1.0
290
     0
  0
SCALE
  5
58
102
{ACAD_REACTORS
330
47
102
}
330
47
100
AcDbScale
 70
     0
300
100:1
140
100.0
141
1.0
290
     0
  0
SCALE
  5
59
102
{ACAD_REACTORS
330
47
102
}
330
47
100
AcDbScale
 70
     0
300
1/128" = 1'-0"
140
0.0078125
141
12.0
290
     0
  0
SCALE
  5
5A
102
{ACAD_REACTORS
330
47
102
}
330
47
100
AcDbScale
 70
     0
300
1/64" = 1'-0"
140
0.015625
141
12.0
290
     0
  0
SCALE
  5
5B
102
{ACAD_REACTORS
330
47
102
}
330
47
100
AcDbScale
 70
     0
300
1/32" = 1'-0"
140
0.03125
141
12.0
290
     0
  0
SCALE
  5
5C
102
{ACAD_REACTORS
330
47
102
}
330
47
100
AcDbScale
 70
     0
300
1/16" = 1'-0"
140
0.0625
141
12.0
290
     0
  0
SCALE
  5
5D
102
{ACAD_REACTORS
330
47
102
}
330
47
100
AcDbScale
 70
     0
300
3/32" = 1'-0"
140
0.09375
141
12.0
290
     0
  0
SCALE
  5
5E
102
{ACAD_REACTORS
330
47
102
}
330
47
100
AcDbScale
 70
     0
300
1/8" = 1'-0"
140
0.125
141
12.0
290
     0
  0
SCALE
  5
5F
102
{ACAD_REACTORS
330
47
102
}
330
47
100
AcDbScale
 70
     0
300
3/16" = 1'-0"
140
0.1875
141
12.0
290
     0
  0
SCALE
  5
60
102
{ACAD_REACTORS
330
47
102
}
330
47
100
AcDbScale
 70
     0
300
1/4" = 1'-0"
140
0.25
141
12.0
290
     0
  0
SCALE
  5
61
102
{ACAD_REACTORS
330
47
102
}
330
47
100
AcDbScale
 70
     0
300
3/8" = 1'-0"
140
0.375
141
12.0
290
     0
  0
SCALE
  5
62
102
{ACAD_REACTORS
330
47
102
}
330
47
100
AcDbScale
 70
     0
300
1/2" = 1'-0"
140
0.5
141
12.0
290
     0
  0
SCALE
  5
63
102
{ACAD_REACTORS
330
47
102
}
330
47
100
AcDbScale
 70
     0
300
3/4" = 1'-0"
140
0.75
141
12.0
290
     0
  0
SCALE
  5
64
102
{ACAD_REACTORS
330
47
102
}
330
47
100
AcDbScale
 70
     0
300
1" = 1'-0"
140
1.0
141
12.0
290
     0
  0
SCALE
  5
65
102
{ACAD_REACTORS
330
47
102
}
330
47
100
AcDbScale
 70
     0
300
1-1/2" = 1'-0"
140
1.5
141
12.0
290
     0
  0
SCALE
  5
66
102
{ACAD_REACTORS
330
47
102
}
330
47
100
AcDbScale
 70
     0
300
3" = 1'-0"
140
3.0
141
12.0
290
     0
  0
SCALE
  5
67
102
{ACAD_REACTORS
330
47
102
}
330
47
100
AcDbScale
 70
     0
300
6" = 1'-0"
140
6.0
141
12.0
290
     0
  0
SCALE
  5
68
102
{ACAD_REACTORS
330
47
102
}
330
47
100
AcDbScale
 70
     0
300
1'-0" = 1'-0"
140
12.0
141
12.0
290
     0
  0
ENDSEC
  0
EOF
